<svg id="Layer_1" data-name="Layer 1" xmlns="http://www.w3.org/2000/svg" viewBox="0 0 461.3 438.72"><defs><style>.cls-1{fill:#6a0d0d;}.cls-2{fill:#e35925;}.cls-3{fill:#e5a54f;}</style></defs><path class="cls-1" d="M29.6,379.45a11.5,11.5,0,0,1,13.61-.59c57.53,38.08,132.93,56,200.16,35.8a198.82,198.82,0,0,0,56.9-27.56,217.47,217.47,0,0,0,22.86-18.67c4.12-3.82,12.29-13.53,18.76-9.35,1.86,1.2,2.48,3.67,2.41,5.88-.11,3.9-1.83,7.56-3.63,11-28.73,55-89.62,90-150.39,95.33-2.62.22-5.25.4-7.87.53-30.38,1.49-61.3-4-88.91-16.9-26.6-12.4-55.22-33.85-67.33-61.48A11.89,11.89,0,0,1,29.6,379.45Z" transform="translate(-25.17 -33.36)"/><path class="cls-2" d="M375.07,333.52c2.27-2.32,2.18-11.2,2.29-14.73,0-.81.06-1.62.11-2.41a92,92,0,0,1,1.22-10.88,75.24,75.24,0,0,1,5.57-18.12,112,112,0,0,1,11.14-18.65c4.59-6.51,9.34-12.81,13.31-20.18a68.61,68.61,0,0,0,5.53-51.86c-5.26-18.06-17-34.09-21.73-52.33l-.06-.13s-.12-.64-.2-1.13c0-.28-.08-.52-.1-.61a31.39,31.39,0,0,0-1.44-4.82,13.34,13.34,0,0,0-2.86-4.39,3.49,3.49,0,0,0-.69-.6,3.21,3.21,0,0,0-.9-.37h-.2l-.69.08c-.58.06.09,5.92.66,11,.33,2.92.63,5.57.71,6.59a85.9,85.9,0,0,1-.42,13.39c-.1,1.19-.2,2.37-.28,3.58a22.42,22.42,0,0,1-.34,2.55c-.16.82-.35,1.65-.55,2.5-.24,1-.5,2-.76,3-.17.65-.34,1.3-.5,1.93-.1.41-.22.81-.34,1.21s-.24.81-.34,1.2-.2.76-.32,1.17l-.38,1.2c-.23.68-.45,1.38-.66,2.09-.27.89-.55,1.79-.85,2.64l-.2.58-.19.6c-.69,2.22-1.79,5.17-2.65,7.49l-.24.63L376,200.28c-.22.61-.49,1.27-.76,1.92l-.14.35-.35.9c-.18.46-.37.94-.55,1.37-.45,1.05-.87,2.1-1.29,3.15-.49,1.22-1,2.45-1.5,3.64l-.47,1.12-.48,1.17c-.29.7-.61,1.45-.94,2.21s-.66,1.54-1,2.3l-.95,2.24c-.4.85-.85,1.94-1.28,3-.2.5-.4,1-.64,1.53l-1.91,4.5-.7,1.69a139.5,139.5,0,0,0-6.88,19.22A125.07,125.07,0,0,0,352.94,266a121.33,121.33,0,0,0-1.24,15.66v.51c0,.78,0,1.55,0,2.34a5.61,5.61,0,0,1,0,.58c0,.28,0,.56,0,.82a6.11,6.11,0,0,1,0,.64c0,.29,0,.56,0,.77s.1,2,.2,3.4c.08,1.23.2,2.26.18,2.3l0,.16.71,6.13.05.12s.16,1,.27,1.77c.07.51.14,1,.17,1.1h0l.54,2.86c.11.62.29,1.46.5,2.34.29,1.2.61,2.44.84,3.28A80.29,80.29,0,0,0,359.1,322a40,40,0,0,0,4.72,8.15c.43.54.79,1,1.19,1.43a12.24,12.24,0,0,0,1.46,1.31C369.82,335.46,373.12,335.53,375.07,333.52Z" transform="translate(-25.17 -33.36)"/><path class="cls-2" d="M341.37,285.37c.05-2.34.09-4.94.06-5.48,0-.34,0-.78,0-1.25s0-.75,0-1c0-.43,0-.88,0-1.32s0-.61,0-.94c0-1.28-.08-2.51-.15-3.77l-.05-.81a209.93,209.93,0,0,0-2.92-25.1,212.43,212.43,0,0,0-5.87-24.61c-3.86-12.72-6.83-19.48-11.58-30.32l-1.17-2.66L316.44,181c-.39-.87-.72-1.63-1.06-2.41-.71-1.63-1.46-3.33-2.11-4.68l-1.57-3.52c-.52-1.2-1.07-2.41-1.61-3.61s-1.07-2.37-1.55-3.47l-.8-1.84s-.78-1.76-.78-1.76c-.85-1.87-1.67-3.81-2.49-5.73-.71-1.65-1.4-3.3-2.14-4.95-.31-.69-.62-1.43-.92-2.16l-.58-1.41-.24-.56c-.44-1-.89-2.06-1.26-3,0,0-2.93-7.24-2.93-7.24l-.39-1c-1.45-3.65-3.29-8.29-4.47-11.81,0,0-.33-.94-.33-.94l-.34-.93c-.51-1.34-1-2.76-1.45-4.17-.37-1.11-.74-2.23-1.13-3.31-.21-.59-.43-1.23-.65-1.89s-.4-1.29-.56-1.86-.38-1.26-.59-1.9-.41-1.27-.59-1.92c-.28-1-.58-2-.88-3.05-.45-1.54-.9-3.1-1.33-4.73-.36-1.36-.7-2.67-1-4A38.78,38.78,0,0,1,282,89.1c-.21-1.94-.44-3.84-.67-5.74-.85-7.09-1.73-14.47-1.52-21.51,0-1.66.31-6,.6-10.67.51-8.2,1.1-17.7.24-17.75l-1-.07-.3,0a4.9,4.9,0,0,0-1.32.67,6.06,6.06,0,0,0-1,1,22.41,22.41,0,0,0-4,7.32,53.8,53.8,0,0,0-1.82,7.9c0,.14-.07.53-.11,1-.08.79-.19,1.8-.22,1.85l-.08.21C265,83.14,248.54,110,241.91,139.53a117.69,117.69,0,0,0,11.8,83c6.44,11.51,14,21.22,21.27,31.3,6.45,8.9,12.72,18.09,17.91,29a126.4,126.4,0,0,1,9.55,28.68,155.54,155.54,0,0,1,2.57,17.4c.12,1.27.23,2.56.32,3.87.41,5.67.89,20,4.43,23.51,3.06,3.05,8,2.65,12.81-1.78a17.61,17.61,0,0,0,2.09-2.24c.57-.73,1.08-1.5,1.67-2.41a65.6,65.6,0,0,0,6.5-13.52,137.55,137.55,0,0,0,5.1-18.39c.28-1.37.68-3.4,1-5.36.25-1.43.47-2.8.58-3.8l.61-4.65v0c0-.23.11-1,.18-1.79.11-1.28.25-2.83.28-2.86l.07-.21.63-9.93-.06-.25C341.22,289,341.33,287.36,341.37,285.37Z" transform="translate(-25.17 -33.36)"/><path class="cls-1" d="M484.41,335.91a4.81,4.81,0,0,0-6-.09c-17.64,13.24-39.93,21.77-62,22.46-22.07-.69-44.36-9.22-62-22.46a4.81,4.81,0,0,0-6,.09,5.75,5.75,0,0,0-1.69,6.47c3.63,9.56,15.31,33.36,42.6,42,1.63.51,3.27,1,4.92,1.42a81.87,81.87,0,0,0,16.42,2.6c1.91.1,3.81.1,5.72,0s3.81.06,5.72,0a81.87,81.87,0,0,0,16.42-2.6c1.65-.43,3.29-.91,4.92-1.42,27.29-8.67,39-32.47,42.6-42A5.73,5.73,0,0,0,484.41,335.91Z" transform="translate(-25.17 -33.36)"/><path class="cls-3" d="M303.84,362.48a7,7,0,0,1-2.82,7.14c-10.73,7.59-23.33,15.05-32,19-.73.34-1.45.65-2.12.94-53.64,22.76-117,20.66-171.42-.49A232.85,232.85,0,0,1,55,368.78a5.13,5.13,0,0,1-2.29-5.22c.79-4.45,2.72-12,7.1-15.52-.2-5.58,2.62-18.8,6.54-30.16,3.44-9.87,7.82-18.6,12.14-20.47a15,15,0,0,1,4.27-1.58c.57-.13.75-.19,3.06-3.34l-.29-.32a1.56,1.56,0,0,1-.92-.41h0a1.51,1.51,0,0,1-.48-.9v-.06l0-.06v-.05l0-.07v-.06a1.47,1.47,0,0,1,.5-.9,1.54,1.54,0,0,1,.92-.4,2.93,2.93,0,0,1,.86-.73,3,3,0,0,1,1.17-.37,2.21,2.21,0,0,1,1-.46,6.54,6.54,0,0,1,1.36-.12h.6a2.26,2.26,0,0,1-.2-.93v-.06c0-1.8,1.31-1.87,2.5-1.93.48,0,.95-.05,1-.3a.51.51,0,0,1,.51-.5h.47a1.6,1.6,0,0,1-.13-.6,1.46,1.46,0,0,1,.48-1.05,1.64,1.64,0,0,1,.85-.4.66.66,0,0,1,0-.13.5.5,0,0,1,0-.23,3.36,3.36,0,0,1-2.17-2.16,3.66,3.66,0,0,1-.21-1.2,3.35,3.35,0,0,1,.24-1.07v0h0a1.28,1.28,0,0,1,1.16-.79h.54v-.11a1.12,1.12,0,0,1,.45-.9,1.23,1.23,0,0,1,.51-.26.84.84,0,0,1,.36-.7h0a.76.76,0,0,1,.17-.13V274a3.94,3.94,0,0,1,.69-2.14,2.94,2.94,0,0,0,.51-1.53.55.55,0,0,1,.53-.54h1.58a.55.55,0,0,1,.53.54,3,3,0,0,0,.52,1.53,4,4,0,0,1,.68,2.27.76.76,0,0,1,.17.13h0a.84.84,0,0,1,.35.7,1.28,1.28,0,0,1,.52.26,1.14,1.14,0,0,1,.44.9v.11h.54a1.23,1.23,0,0,1,1.15.79h0v0a3.11,3.11,0,0,1,.25,1.07,4,4,0,0,1-.22,1.2,3.34,3.34,0,0,1-2.17,2.16.49.49,0,0,1,0,.23.34.34,0,0,1,0,.13,1.58,1.58,0,0,1,.84.4,1.43,1.43,0,0,1,.49,1.05,1.6,1.6,0,0,1-.13.6h.47a.51.51,0,0,1,.52.5c0,.25.48.26,1,.3,1.2.06,2.49.13,2.51,1.93v.06a2.26,2.26,0,0,1-.2.93h.6a6.48,6.48,0,0,1,1.36.12,2.17,2.17,0,0,1,1,.46,3,3,0,0,1,1.17.37,2.55,2.55,0,0,1,.85.73,1.52,1.52,0,0,1,.92.4,1.33,1.33,0,0,1,.5.9v.06l0,.07v.05l0,.06v.06a1.4,1.4,0,0,1-.47.9h0a1.53,1.53,0,0,1-.92.41c-.09.12-.19.2-.28.32,2.32,3.15,2.49,3.21,3.06,3.34a15,15,0,0,1,4.27,1.58c3.65,1.59,7.37,8.07,10.49,16,.76-2.9,1.37-5.28,1.77-6.91,6-24.23,12.92-52,19-60.49a22,22,0,0,1,4.71-4.58,2.74,2.74,0,0,0-.34-.19,4.36,4.36,0,0,1-1-.84h0v0a1.54,1.54,0,0,1-.17-.24h-.07a2.49,2.49,0,0,1-1.54-.67,2.22,2.22,0,0,1-.69-1.47V238l0-.11v-.06a2.18,2.18,0,0,1,.72-1.34,2.45,2.45,0,0,1,1.56-.6,3.8,3.8,0,0,1,1.33-1.21v0a4.48,4.48,0,0,1,1.95-.55,2.94,2.94,0,0,1,1.63-.78h0a9.69,9.69,0,0,1,2.17-.2h1.42a1.76,1.76,0,0,1-.21-.38,3.06,3.06,0,0,1-.3-1.41v0c0-2.81,2-2.95,3.85-3,.95-.06,1.8-.1,1.83-.64v0a.6.6,0,0,1,.6-.61h1.27a2.14,2.14,0,0,1-.4-1.22,2.33,2.33,0,0,1,.7-1.58,2.42,2.42,0,0,1,1.56-.6,1.22,1.22,0,0,1-.09-.46,1,1,0,0,1,.15-.53,5.2,5.2,0,0,1-3.67-3.45,5.82,5.82,0,0,1-.32-1.89,4.32,4.32,0,0,1,.34-1.67,1.93,1.93,0,0,1,1.73-1.21h.74a2.68,2.68,0,0,1-.05-.42,1.62,1.62,0,0,1,.65-1.28,2.22,2.22,0,0,1,1-.46v-.13a1.31,1.31,0,0,1,.57-1,1.59,1.59,0,0,1,.75-.31,6.28,6.28,0,0,1,1.09-3.66,4.77,4.77,0,0,0,.88-2.62v-.06a.63.63,0,0,1,.62-.61h2.58a.63.63,0,0,1,.62.61v.06a4.7,4.7,0,0,0,.88,2.62,6.28,6.28,0,0,1,1.09,3.66,1.59,1.59,0,0,1,.75.31,1.34,1.34,0,0,1,.57,1v.13a2.18,2.18,0,0,1,1,.46,1.63,1.63,0,0,1,.66,1.28,1.85,1.85,0,0,1-.06.42h.75a1.9,1.9,0,0,1,1.72,1.21,4.32,4.32,0,0,1,.35,1.67,5.82,5.82,0,0,1-.32,1.89,5.18,5.18,0,0,1-3.67,3.45,1,1,0,0,1,.15.53,1.22,1.22,0,0,1-.09.46,2.42,2.42,0,0,1,1.56.6,2.33,2.33,0,0,1,.7,1.58,2.14,2.14,0,0,1-.4,1.22h1.27a.61.61,0,0,1,.6.61v0c0,.54.88.58,1.82.64,1.82.09,3.84.23,3.86,3v0a3.06,3.06,0,0,1-.3,1.41,1.45,1.45,0,0,1-.22.38h1.43a9.74,9.74,0,0,1,2.17.2h0a2.88,2.88,0,0,1,1.62.78,4.49,4.49,0,0,1,2,.55v0a3.8,3.8,0,0,1,1.33,1.21,2.43,2.43,0,0,1,1.55.6,2.15,2.15,0,0,1,.73,1.34v.06l0,.11V238a2.22,2.22,0,0,1-.69,1.47,2.49,2.49,0,0,1-1.54.67h-.07a2.73,2.73,0,0,1-.17.24v0h0a4.36,4.36,0,0,1-1,.84,2.74,2.74,0,0,0-.34.19,22,22,0,0,1,4.71,4.58c6,8.49,12.92,36.26,19,60.49.41,1.71,1.08,4.21,1.92,7.27,3.16-8.11,6.93-14.78,10.64-16.38a14.93,14.93,0,0,1,4.25-1.58c.57-.13.75-.19,3.06-3.34-.09-.12-.17-.2-.27-.32a1.53,1.53,0,0,1-.93-.41h0a1.43,1.43,0,0,1-.49-.9v-.3a1.58,1.58,0,0,1,1.43-1.3,2.55,2.55,0,0,1,.85-.73,3,3,0,0,1,1.18-.37,2.14,2.14,0,0,1,1-.46,6.65,6.65,0,0,1,1.36-.12h.61a2.11,2.11,0,0,1-.2-.93v-.06c0-1.8,1.32-1.87,2.5-1.93.49,0,.94-.05,1-.3a.51.51,0,0,1,.53-.5h.45a1.6,1.6,0,0,1-.12-.6,1.42,1.42,0,0,1,.48-1.05,1.64,1.64,0,0,1,.86-.4.24.24,0,0,1,0-.13,1.07,1.07,0,0,1,0-.23,3.4,3.4,0,0,1-2.17-2.16,3.92,3.92,0,0,1-.2-1.2,2.89,2.89,0,0,1,.24-1.07v0h0a1.24,1.24,0,0,1,1.15-.79h.53v-.11a1.15,1.15,0,0,1,.45-.9,1.28,1.28,0,0,1,.52-.26.86.86,0,0,1,.35-.7h0a.49.49,0,0,1,.15-.13V274a4.12,4.12,0,0,1,.69-2.14,2.87,2.87,0,0,0,.53-1.53.55.55,0,0,1,.51-.54H258a.55.55,0,0,1,.51.54,2.87,2.87,0,0,0,.53,1.53,4.18,4.18,0,0,1,.69,2.27.64.64,0,0,1,.15.13h0a.85.85,0,0,1,.34.7,1.26,1.26,0,0,1,.53.26,1.18,1.18,0,0,1,.45.9v.11h.52a1.25,1.25,0,0,1,1.16.79h0v0a2.71,2.71,0,0,1,.25,1.07,3.92,3.92,0,0,1-.2,1.2,3.4,3.4,0,0,1-2.17,2.16,1.17,1.17,0,0,1,0,.23.34.34,0,0,1,0,.13,1.68,1.68,0,0,1,.86.4,1.41,1.41,0,0,1,.35,1.65h.46a.51.51,0,0,1,.52.5c0,.25.48.26,1,.3,1.18.06,2.48.13,2.49,1.93v.06a2.08,2.08,0,0,1-.19.93h.61a6.71,6.71,0,0,1,1.36.12,2.14,2.14,0,0,1,1,.46,2.87,2.87,0,0,1,1.17.37,2.49,2.49,0,0,1,.86.73,1.58,1.58,0,0,1,1.43,1.3v.3a1.43,1.43,0,0,1-.49.9h0a1.53,1.53,0,0,1-.93.41,3.82,3.82,0,0,0-.27.32c2.31,3.15,2.48,3.21,3.05,3.34a15,15,0,0,1,4.27,1.58c4.31,1.87,8.71,10.6,12.14,20.47,3.91,11.36,6.75,24.58,6.55,30.16a27.3,27.3,0,0,1,5.8,10.62C303.23,359.9,303.56,361.18,303.84,362.48Z" transform="translate(-25.17 -33.36)"/></svg>